<?xml version="1.0" encoding="UTF-8"?>
<!DOCTYPE svg PUBLIC "-//W3C//DTD SVG 1.1//EN" "http://www.w3.org/Graphics/SVG/1.1/DTD/svg11.dtd">
<!-- Creator: CorelDRAW Home & Student 2018 -->
<svg xmlns="http://www.w3.org/2000/svg" xml:space="preserve" width="20022px" height="19242px" version="1.1" style="shape-rendering:geometricPrecision; text-rendering:geometricPrecision; image-rendering:optimizeQuality; fill-rule:evenodd; clip-rule:evenodd"
viewBox="0 0 20022 19242.29"
 xmlns:xlink="http://www.w3.org/1999/xlink">
 <defs>
  <style type="text/css">
   <![CDATA[
    .fil0 {fill:#FEFEFE}
    .fil1 {fill:#032024}
    .fil2 {fill:red}
    .fil3 {fill:red;fill-rule:nonzero}
   ]]>
  </style>
 </defs>
 <g id="Layer_x0020_1">
  <metadata id="CorelCorpID_0Corel-Layer"/>
  <rect class="fil0" x="29.85" y="65.55" width="19989.97" height="19213.92"/>
  <rect class="fil1" x="29.85" y="18059.18" width="20021.89" height="1607.77"/>
  <path class="fil2" d="M11503.4 1876.43c0,414.92 -140.07,768.58 -413.57,1049.21 -273.41,292.82 -620.26,427.1 -1033.74,427.1 -413.57,0 -767.01,-134.28 -1053.86,-427.1 -286.72,-280.63 -426.88,-634.29 -426.88,-1049.21 0,-414.78 140.16,-756.32 426.88,-1036.85 286.85,-280.63 640.3,-414.92 1053.86,-414.92 413.48,0 760.33,134.29 1033.74,414.92 273.5,280.53 413.57,622.07 413.57,1036.85z"/>
  <polygon class="fil3" points="11503.4,15928.36 8575.35,15928.36 8575.35,14314.15 9163.58,14314.15 9163.58,15241.38 9678.75,15241.38 9678.75,14387.09 10266.97,14387.09 10266.97,15241.38 11503.4,15241.38 "/>
  <path class="fil3" d="M9425.49 12837.25c-261.91,0 -390.69,81.6 -390.69,240.35 0,167.54 128.78,249.1 390.69,249.1l1202.14 0c279.01,0 420.7,-85.94 420.7,-253.35 0,-158.91 -141.69,-236.1 -420.7,-236.1l-1202.14 0 0 0 0 0zm1146.3 -686.97c686.88,0 1000.26,253.28 1000.26,923.07 0,682.6 -326.19,940.23 -1000.26,940.23l-1193.49 0c-571.04,0 -871.6,-339.22 -871.6,-940.23 0,-596.76 309.13,-923.07 871.6,-923.07l1193.49 0z"/>
  <path class="fil3" d="M9597.18 10677.66l-184.63 0c-240.34,0 -377.75,77.31 -377.75,219 -4.28,188.97 94.37,266.19 300.47,266.19l1451.15 0c176.06,0 261.91,-81.59 261.91,-244.72 0,-167.44 -141.6,-253.28 -425.07,-253.28l-261.91 0 0 -686.89 356.41 0c532.38,0 854.29,321.94 854.29,991.74 0,605.28 -317.63,880.13 -931.6,880.13l-1202.15 0c-635.32,0 -931.6,-300.56 -931.6,-923.17 0,-622.48 283.38,-935.85 845.76,-935.85l244.72 0 0 686.85 0 0z"/>
  <path class="fil3" d="M8541.07 9668.77l0 -686.88 2210.97 0c176.07,0 261.91,-81.57 261.91,-240.45 0,-167.44 -128.78,-231.81 -283.38,-231.81l-2189.5 0 0 -686.98 2120.85 0c583.85,0 875.85,309.22 875.85,923.04 0,613.95 -292,923.08 -875.85,923.08l-2120.85 0 0 0z"/>
  <path class="fil3" d="M10524.6 6964.07l205.97 0c210.44,0 317.76,-90.09 317.76,-270.53 0,-154.54 -124.5,-231.82 -296.19,-231.82 -107.41,0 -184.6,30.09 -236.19,85.85 -55.85,55.84 -124.48,154.59 -210.35,296.28 -141.66,249.01 -270.54,420.7 -382.13,519.45 -158.75,133.06 -356.29,197.53 -588.1,197.53 -545.29,0 -828.67,-326.29 -828.67,-862.95 0,-579.54 382.13,-901.58 948.79,-867.2l0 631.04c-274.72,12.91 -407.79,25.81 -420.69,227.63 -12.91,141.6 51.56,218.88 193.25,236.06 133.03,17.22 253.25,-51.43 360.57,-206.06 90.12,-154.6 145.97,-249 197.53,-334.85 21.47,-43 55.75,-98.84 103.03,-163.13 47.22,-64.5 81.6,-111.69 111.6,-141.69 158.88,-167.44 390.66,-253.28 699.79,-253.28 562.48,0 871.58,309 871.58,880.04 0,588.23 -317.76,892.95 -734.17,892.95l-313.38 0 0 -635.32 0 0 0 0z"/>
  <polygon class="fil3" points="12817.14,17154.01 7261.61,17154.01 7261.61,16500.4 12817.14,16500.4 "/>
  <polygon class="fil3" points="12817.14,5410.52 7261.61,5410.52 7261.61,4756.88 12817.14,4756.88 "/>
 </g>
</svg>
