<svg width="71" height="94" viewBox="0 0 71 94" fill="none" xmlns="http://www.w3.org/2000/svg">
<path d="M70.4161 0.583521C70.0402 0.211178 69.5328 0.00158168 69.0035 7.33837e-07H1.99825C1.73592 -0.00022411 1.4761 0.0512214 1.23367 0.151393C0.991247 0.251564 0.770956 0.398502 0.58538 0.583803C0.399804 0.769104 0.252587 0.989137 0.152145 1.23133C0.0517033 1.47352 -9.64769e-08 1.73311 0 1.99527V91.4577C-9.64768e-08 91.7199 0.0517033 91.9795 0.152145 92.2216C0.252587 92.4638 0.399804 92.6839 0.58538 92.8692C0.770956 93.0545 0.991247 93.2014 1.23367 93.3016C1.4761 93.4018 1.73592 93.4532 1.99825 93.453H56.7914C57.3179 93.4524 57.823 93.2446 58.1972 92.8746L64.3597 86.769H64.3683L70.4178 80.6976C70.7899 80.3231 70.9991 79.817 71 79.2892V1.99527C70.998 1.4664 70.7884 0.959432 70.4161 0.583521ZM56.2983 89.5326V79.2653H66.9333L56.2983 89.5326ZM67.0138 75.2833H54.3103C53.7808 75.2837 53.2731 75.494 52.8985 75.8681C52.5239 76.2421 52.313 76.7494 52.3121 77.2785V89.4624H4.00161V3.99056H67.0138V37.4277H67.0224V43.8174L67.0138 48.3419V75.2833Z" fill="white"/>
<line x1="17.7783" y1="32.5898" x2="53.2228" y2="32.5898" stroke="white" stroke-width="4" stroke-linecap="round"/>
<line x1="17.7783" y1="42.9058" x2="53.2228" y2="42.9058" stroke="white" stroke-width="4" stroke-linecap="round"/>
<line x1="17.7783" y1="53.2222" x2="53.2228" y2="53.2222" stroke="white" stroke-width="4" stroke-linecap="round"/>
</svg>
